<svg width="127" height="120" viewBox="0 0 127 120" fill="none" xmlns="http://www.w3.org/2000/svg">
<path fill-rule="evenodd" clip-rule="evenodd" d="M6.62615 -2.2043e-09C11.4105 9.89326e-06 13.7153 0.4606 16.0812 1.87598C19.6474 4.01706 21.3566 7.76747 22.9513 16.9492C23.7312 21.411 24.835 29.372 25.4308 34.7461C25.6407 36.6961 25.8592 38.3312 25.9211 38.3809C25.9736 38.424 26.105 37.0163 26.2189 35.249C26.9725 23.337 29.2336 9.90148 31.5031 3.8877C32.4581 1.37336 32.8263 0.841111 33.9914 0.331055C35.1218 -0.157506 38.1458 -0.0782634 39.1711 0.467773C40.2572 1.05678 40.6074 1.59587 41.4484 3.95898C44.0246 11.2371 46.2509 25.4922 46.8293 38.4463L47.0744 43.7197L45.7248 42.749C44.9886 42.2174 43.5163 41.4485 42.4562 41.0391C40.7041 40.3639 40.1342 40.2998 36.1916 40.2998C32.0118 40.2998 31.7569 40.3357 29.4611 41.2266C25.8862 42.6132 22.3636 45.616 20.4797 48.8848C19.6823 50.2714 18.9902 51.2127 18.9377 50.9756C18.8937 50.7429 18.683 47.9207 18.4728 44.7109C17.5177 29.9896 15.2402 14.564 13.2248 9.22559C12.4712 7.21395 11.6646 6.63206 9.27263 6.36621L7.70427 6.18652L7.70427 113.066L8.93963 113.066C9.61436 113.066 10.6485 112.865 11.2267 112.613C12.9263 111.895 13.4435 110.623 14.9767 103.382C15.8267 99.3656 17.7543 84.4782 18.464 76.417C18.8496 72.0415 19.376 69.9648 20.6291 67.9531C21.251 66.9548 21.2773 66.66 20.9269 65.1875C20.4012 63.0177 20.3835 58.139 20.883 55.8184C22.3639 49.0073 26.2459 44.6248 32.2746 42.9795C38.1979 41.3631 44.5505 43.5612 47.0568 48.0801C48.0557 49.8834 48.1086 53.6343 47.1623 55.6748C45.252 59.7844 41.9397 62.3567 33.9484 65.9346C31.8366 66.8758 30.0664 67.8462 30.0138 68.0977C29.8219 68.8954 32.0992 70.9856 34.0617 71.8262C38.0137 73.5218 40.967 72.6738 46.4963 68.2695L50.0363 65.4531L49.8439 61.9902C49.6249 57.9596 50.2117 54.5541 51.6926 51.4072C53.5853 47.3694 56.0039 45.1059 60.1574 43.4678C62.1989 42.6632 62.7251 42.5768 65.7131 42.584C68.6044 42.584 69.2527 42.6854 70.9787 43.375C78.611 46.4357 79.4437 54.6544 72.7053 60.4668C70.3043 62.536 68.0962 63.7795 63.0226 65.9277C60.8671 66.833 59.1144 67.7237 59.1144 67.9033C59.1146 68.3273 60.0083 69.4121 61.3312 70.583C63.7673 72.7312 66.9395 73.2054 70.1467 71.8906C73.4239 70.5543 76.0795 67.6377 81.0041 59.9502C83.2824 56.3866 87.1466 51.3566 88.0929 50.71C88.5659 50.3864 88.6359 49.2356 88.6359 41.959C88.6359 37.3469 88.8025 32.656 88.9953 31.5273C90.0468 25.564 93.9636 22.4021 100.299 22.3877C102.665 22.3877 103.41 22.51 105.066 23.1709C108.886 24.7012 111.208 28.0135 111.296 32.0439C111.34 34.07 110.674 35.1193 109.044 35.5791C106.45 36.3191 104.137 34.99 103.751 32.54C103.392 30.2697 103.226 29.8812 102.359 29.1699C101.368 28.351 99.6069 28.2505 98.4064 28.9473C96.724 29.91 96.4871 30.9665 96.3469 38.0937C96.268 41.7436 96.3474 44.7109 96.5138 44.7109C96.6805 44.7108 97.1275 44.5383 97.5041 44.3301C98.8976 43.547 102.788 42.6707 105.487 42.5342C107.887 42.412 108.413 42.4768 109.412 42.9941C111.515 44.079 111.559 44.3593 111.559 56.7383C111.568 68.5355 111.691 69.6202 113.137 70.8057C114.644 72.0412 117.343 71.5243 118.263 69.8145C118.552 69.297 118.727 65.2518 118.85 56.5801L119.025 44.0928L120.164 43.2666C122.197 41.7725 125.088 42.3329 126.14 44.416C126.482 45.0842 126.535 48.7487 126.403 60.7256C126.228 77.0062 125.956 80.3185 124.414 85.3047C122.145 92.669 116.694 96.5488 108.614 96.5488C106.407 96.5488 106.213 96.4913 105.057 95.543C103.918 94.6091 103.848 94.4359 104.015 93.2002C104.155 92.1731 104.444 91.6848 105.277 91.0742C106.214 90.3845 106.652 90.2764 108.528 90.2764C112.348 90.2619 115.09 88.7245 116.396 85.8652C117.123 84.2703 118.692 77.5242 118.394 77.2725C118.306 77.2006 117.395 77.2652 116.37 77.416C114.294 77.725 111.489 77.4588 109.92 76.7979C108.501 76.1942 106.188 74.2254 105.504 73.04C104.172 70.741 103.936 68.5564 103.927 58.5986C103.918 50.7532 103.83 48.9854 103.453 48.9854C102.559 48.9858 98.8702 50.6892 97.5822 51.7021L96.2765 52.7217L96.2765 75.9287C96.2765 101.089 96.3205 100.507 94.3928 101.542C93.0258 102.275 90.809 101.945 89.591 100.831L88.6359 99.9541L88.6359 61.3799L86.2258 65.001C83.1328 69.6635 81.643 71.4888 79.1457 73.6729C73.5201 78.6085 66.7816 79.9949 60.3937 77.5234C57.949 76.5822 55.0046 74.5278 53.8566 72.9687C53.436 72.3868 53.0332 71.8547 52.9719 71.79C52.9101 71.7257 51.8064 72.5016 50.5187 73.5215C45.7343 77.2791 42.2108 78.6879 37.5754 78.6807C33.9392 78.6806 31.4945 78.0193 28.3927 76.209L26.1847 74.915L26.0529 76.2588C25.8952 77.8825 26.5177 78.4718 29.7424 79.7363C34.0009 81.3959 39.4599 81.5689 43.5519 80.168C47.4074 78.846 47.0658 78.5653 46.8029 82.7607C46.54 86.9279 45.3921 97.3245 44.84 100.536C43.2189 109.891 42.1152 114.439 40.7482 117.392C40.1611 118.656 38.741 119.331 36.6818 119.331C34.2109 119.331 33.2204 118.908 32.423 117.507C31.6782 116.199 30.1358 111.615 29.7853 109.646C29.6276 108.784 29.4351 107.936 29.2248 107.081C28.4098 103.933 26.2282 86.7558 26.0793 82.3086L26.0353 81.0225L25.7551 82.3086C25.5973 83.0127 25.2993 85.1894 25.0802 87.1436C24.3004 94.199 22.7577 103.461 21.382 109.359C20.1727 114.518 17.5092 117.528 13.1017 118.714C11.2704 119.21 9.98214 119.331 6.62615 119.331L2.42888 119.331L1.24529 118.361C0.597134 117.83 0.0452333 117.09 0.018727 116.724C-0.00756165 116.357 -0.00753471 108.425 0.027516 99.1064C0.0625667 89.7879 0.0802234 64.1095 0.0714613 42.0381L0.0626722 1.91895L1.30681 0.962891L2.54216 -8.45579e-10L6.62615 -2.2043e-09ZM54.2687 77.0059C56.6521 78.8163 60.6651 80.5123 63.5568 80.9219L65.7394 81.2305L65.5637 82.4092C65.4673 83.0558 65.3006 84.9955 65.1955 86.7197C64.8099 92.8985 62.8558 105.996 61.9181 108.647C59.9291 114.287 58.7465 116.199 57.2482 116.199C56.4158 116.199 54.9432 114.389 54.1808 112.435C52.8139 108.914 51.0525 100.974 50.5969 96.333C50.5005 95.2768 50.2643 93.2577 50.089 91.8496C49.905 90.4341 49.5894 86.7345 49.3879 83.6094L49.0109 77.9404L50.676 76.7402L52.341 75.541L54.2687 77.0059ZM82.3527 74.334C82.7032 74.334 82.563 78.5082 82.0285 83.7314C81.8445 85.5348 81.617 87.9634 81.5119 89.1416C81.1351 93.5958 80.9508 95.0691 80.4426 97.9717C78.9706 106.341 77.8229 109.359 76.1232 109.359C75.3346 109.359 74.3698 107.958 73.5724 105.651C72.2318 101.786 70.5936 90.5567 70.4709 84.3564L70.4006 80.8574L72.6613 80.2246C73.8969 79.8797 75.8513 79.0607 76.9992 78.4141C79.146 77.1998 82.0373 74.9942 82.0373 74.5703C82.0375 74.4412 82.1778 74.3341 82.3527 74.334ZM65.6164 48.6982C64.2319 48.6982 63.4165 48.8712 62.549 49.3525C59.8065 50.8543 57.7999 54.7052 57.467 59.0732L57.2746 61.6162L58.4484 61.0342C59.1056 60.7109 60.4113 60.101 61.3576 59.6699C67.0618 57.1051 69.5331 54.7338 69.5334 51.8242C69.5334 50.5957 69.3754 50.2363 68.5168 49.5322C67.6405 48.8209 67.2375 48.6982 65.6164 48.6982ZM38.925 49.2949C37.8909 48.5047 34.7457 48.4684 33.2297 49.2227C30.6972 50.4944 28.7609 53.9797 28.1213 58.4414C27.9023 59.9713 27.8229 61.3071 27.9455 61.4082C28.2872 61.6812 34.8767 58.5056 36.7082 57.1836C40.4586 54.4821 41.3785 51.1773 38.925 49.2949ZM75.0363 10.6338C77.4636 7.89649 79.7943 14.2122 81.1525 27.2021C81.4329 29.8605 81.827 33.5747 82.0285 35.457C82.23 37.3394 82.4937 41.9524 82.6076 45.71L82.8263 52.542L81.4767 54.3242C80.0399 56.2206 79.4266 56.5944 79.8556 55.3232C80.0046 54.8922 80.1271 53.2537 80.1271 51.6875C80.1271 49.0725 80.0398 48.6841 78.9972 46.8955C77.5514 44.3952 74.5545 41.9229 71.8293 40.9961L69.8752 40.335L70.0412 39.0352C70.1288 38.3239 70.2954 36.132 70.4094 34.1777C70.9965 24.0258 73.2225 12.6814 75.0363 10.6338ZM56.214 3.65723C57.0201 2.92451 57.6423 3.00379 58.7463 3.97363C59.6751 4.79265 61.2002 7.69495 61.2004 8.66504C61.2004 8.93087 61.3494 9.39097 61.5422 9.68555C62.1206 10.5706 63.5572 18.0348 64.3019 24.0693C65.143 30.8503 65.835 39.1967 65.5988 39.71C65.4937 39.9327 64.5212 40.1341 63.1193 40.2275C58.9483 40.5006 53.5939 43.3819 51.3068 46.5791C50.8074 47.276 50.3339 47.8437 50.2463 47.8437C50.1668 47.8425 49.8347 47.4259 49.5197 46.9238C49.0027 46.1048 48.9588 45.2857 49.1515 40.0195C49.3794 33.8622 50.0803 26.4902 51.0793 19.6504C52.1571 12.2861 54.4002 5.29532 56.214 3.65723Z" fill="#02FFD4"/>
</svg>
